<?xml version="1.0" ?><svg data-name="Layer 2" id="a24fb3f3-4723-4100-b3d4-5ba54cff8c08" viewBox="0 0 38 38" xmlns="http://www.w3.org/2000/svg"><path d="M29.429,36.744H8.571a5.259,5.259,0,0,1-5.252-5.253V6.508A5.259,5.259,0,0,1,8.571,1.256h13.32A5.239,5.239,0,0,1,25.615,2.8l7.521,7.514a5.236,5.236,0,0,1,1.545,3.729V31.491A5.259,5.259,0,0,1,29.429,36.744ZM8.571,3.756A2.756,2.756,0,0,0,5.819,6.508V31.491a2.757,2.757,0,0,0,2.752,2.753H29.429a2.757,2.757,0,0,0,2.752-2.753V14.04a2.746,2.746,0,0,0-.812-1.959L23.848,4.567a2.75,2.75,0,0,0-1.957-.811Z"/><path d="M32.32,13.72H27.665A5.24,5.24,0,0,1,22.43,8.485V2.509h2.5V8.485a2.738,2.738,0,0,0,2.735,2.735H32.32Z"/><path d="M21.994,23.674a.528.528,0,0,1-.539-.54.465.465,0,0,1,.154-.359.556.556,0,0,1,.385-.14h4.763a.531.531,0,0,1,.54.539.463.463,0,0,1-.155.36.553.553,0,0,1-.385.14Zm.369-2.776a.529.529,0,0,1-.539-.539.46.46,0,0,1,.155-.36.552.552,0,0,1,.384-.14h4.754a.529.529,0,0,1,.539.539.465.465,0,0,1-.155.36.552.552,0,0,1-.384.14Zm.34,4.384a.477.477,0,0,1-.405-.2.617.617,0,0,1-.1-.474L23.2,18.72a.484.484,0,0,1,.17-.314.505.505,0,0,1,.33-.114.5.5,0,0,1,.419.194.578.578,0,0,1,.1.474l-1.009,5.892a.493.493,0,0,1-.17.31A.5.5,0,0,1,22.7,25.282Zm2.706,0a.5.5,0,0,1-.419-.2.573.573,0,0,1-.1-.474L25.9,18.72a.479.479,0,0,1,.169-.314.523.523,0,0,1,.34-.114.486.486,0,0,1,.409.194.574.574,0,0,1,.1.474l-1.008,5.892a.506.506,0,0,1-.165.31A.486.486,0,0,1,25.409,25.282Z"/><path d="M21.639,15.629a1.068,1.068,0,0,1,.611.821,1.231,1.231,0,0,1-.291,1.019.91.91,0,0,1-.669.4,1.55,1.55,0,0,1-.831-.161,5.191,5.191,0,0,0-1.01-.339,5.009,5.009,0,0,0-1.11-.12,5.177,5.177,0,0,0-1.93.339,4.068,4.068,0,0,0-1.45.971,4.221,4.221,0,0,0-.91,1.489,5.57,5.57,0,0,0-.31,1.9,5.849,5.849,0,0,0,.35,2.12,4.146,4.146,0,0,0,.971,1.5,3.9,3.9,0,0,0,1.46.889,5.52,5.52,0,0,0,1.819.291,5.971,5.971,0,0,0,1.08-.1,3.724,3.724,0,0,0,1.04-.36,1.426,1.426,0,0,1,.831-.14,1.047,1.047,0,0,1,.689.42,1.211,1.211,0,0,1,.291,1.03,1.056,1.056,0,0,1-.611.77,6.887,6.887,0,0,1-1.07.429,7.838,7.838,0,0,1-1.11.261,7.167,7.167,0,0,1-1.14.09,8.059,8.059,0,0,1-2.73-.46,6.911,6.911,0,0,1-2.3-1.36,6.285,6.285,0,0,1-1.591-2.25,7.887,7.887,0,0,1-.58-3.13,7.459,7.459,0,0,1,.53-2.84,6.58,6.58,0,0,1,1.5-2.25,6.948,6.948,0,0,1,2.29-1.481,7.685,7.685,0,0,1,2.88-.529,7.479,7.479,0,0,1,1.721.2A7.039,7.039,0,0,1,21.639,15.629Z"/></svg>