<?xml version="1.0" encoding="utf-8"?>
<!-- Generator: Adobe Illustrator 22.1.0, SVG Export Plug-In . SVG Version: 6.00 Build 0)  -->
<svg version="1.1" id="Layer_1" xmlns="http://www.w3.org/2000/svg" xmlns:xlink="http://www.w3.org/1999/xlink" x="0px" y="0px"
	 viewBox="0 0 512 512" style="enable-background:new 0 0 512 512;" xml:space="preserve">
<g>
	<title>adobe-photoshop</title>
	<g>
		<path d="M31,39.5v438.7h450V39.5L31,39.5z M49.7,58.2h412.5v401.2H49.7L49.7,58.2z M139.8,142.2c0-1.3,2.6-2.2,4.2-2.2
			c12.1-0.6,29.8-1,48.3-1c52,0,72.2,28.5,72.2,65c0,47.7-34.6,68.1-76.9,68.1c-7.2,0-9.6-0.4-14.6-0.4v72.1c0,1.5-0.6,2.2-2.1,2.2
			h-29c-1.5,0-2.1-0.6-2.1-2.1V142.2z M173,241.8c4.3,0.3,7.8,0.3,15.2,0.3c21.9,0,42.6-7.8,42.6-37.4c0-23.8-14.8-35.9-39.8-35.9
			c-7.4,0-14.5,0.3-17.9,0.6V241.8z M334.4,219.5c-14.9,0-19.8,7.5-19.8,13.6c0,6.8,3.4,11.4,23.2,21.7c29.4,14.3,38.7,27.8,38.7,48
			c0,30-22.9,46.1-53.8,46.1c-16.4,0-30.4-3.4-38.4-8.1c-1.2-0.6-1.5-1.5-1.5-3.1v-27.5c0-1.8,0.9-2.5,2.1-1.5
			c11.7,7.8,25.3,11.1,37.7,11.1c14.9,0,21-6.2,21-14.6c0-6.8-4.3-12.7-23.1-22.6c-26.7-12.7-37.8-25.7-37.8-47.4
			c0-24.2,18.9-44.2,51.6-44.2c16.1,0,27.5,2.5,33.7,5.2c1.5,1,1.8,2.5,1.8,3.7v25.7c0,1.5-1,2.5-2.8,1.8
			C358.7,222.6,346.4,219.4,334.4,219.5L334.4,219.5z"/>
	</g>
</g>
</svg>
